<mxfile host="Electron" modified="2020-04-20T16:00:00.426Z" agent="Mozilla/5.0 (X11; Linux x86_64) AppleWebKit/537.36 (KHTML, like Gecko) draw.io/12.3.2 Chrome/78.0.3904.113 Electron/7.1.2 Safari/537.36" etag="9LELwjIjZK-TDdR3VFJS" version="12.3.2" type="device" pages="1">
  <diagram id="vqy2UuVt_5qa8QJ33QPh" name="Page-1">
    <mxGraphModel dx="980" dy="605" grid="1" gridSize="10" guides="0" tooltips="1" connect="1" arrows="1" fold="1" page="1" pageScale="1" pageWidth="827" pageHeight="1169" math="0" shadow="0">
      <root>
        <mxCell id="0"/>
        <mxCell id="1" parent="0"/>
        <mxCell id="pYWC7X-lwmj8GI8FR78z-1" value="&lt;b&gt;tcg_out_hotpatch&lt;/b&gt;" style="rounded=0;whiteSpace=wrap;html=1;" parent="1" vertex="1">
          <mxGeometry x="200" y="260" width="120" height="20" as="geometry"/>
        </mxCell>
        <mxCell id="pYWC7X-lwmj8GI8FR78z-12" style="edgeStyle=orthogonalEdgeStyle;rounded=0;orthogonalLoop=1;jettySize=auto;html=1;strokeWidth=2;fillColor=#e1d5e7;strokeColor=#9673a6;" parent="1" source="pYWC7X-lwmj8GI8FR78z-2" target="pYWC7X-lwmj8GI8FR78z-10" edge="1">
          <mxGeometry relative="1" as="geometry">
            <Array as="points">
              <mxPoint x="370" y="330"/>
              <mxPoint x="370" y="330"/>
            </Array>
          </mxGeometry>
        </mxCell>
        <mxCell id="pYWC7X-lwmj8GI8FR78z-2" value="TCGContext *s" style="rounded=0;whiteSpace=wrap;html=1;fillColor=#e1d5e7;strokeColor=#9673a6;" parent="1" vertex="1">
          <mxGeometry x="320" y="260" width="100" height="20" as="geometry"/>
        </mxCell>
        <mxCell id="pYWC7X-lwmj8GI8FR78z-3" value="uint32_t is_user" style="rounded=0;whiteSpace=wrap;html=1;fillColor=#f5f5f5;strokeColor=#666666;fontColor=#333333;" parent="1" vertex="1">
          <mxGeometry x="420" y="260" width="100" height="20" as="geometry"/>
        </mxCell>
        <mxCell id="pYWC7X-lwmj8GI8FR78z-4" value="uint32_t emit_helper" style="rounded=0;whiteSpace=wrap;html=1;fillColor=#f5f5f5;strokeColor=#666666;fontColor=#333333;" parent="1" vertex="1">
          <mxGeometry x="520" y="260" width="120" height="20" as="geometry"/>
        </mxCell>
        <mxCell id="pYWC7X-lwmj8GI8FR78z-5" value="&lt;font color=&quot;#999999&quot;&gt;//&amp;nbsp;S1: direct jump (the reloc part requires 4-byte alignment)&lt;/font&gt;" style="text;html=1;align=left;verticalAlign=middle;resizable=0;points=[];;autosize=1;" parent="1" vertex="1">
          <mxGeometry x="240" y="280" width="330" height="20" as="geometry"/>
        </mxCell>
        <mxCell id="pYWC7X-lwmj8GI8FR78z-6" value="&lt;font color=&quot;#999999&quot;&gt;//&amp;nbsp;S2: trace profiling stub&lt;/font&gt;" style="text;html=1;align=left;verticalAlign=middle;resizable=0;points=[];;autosize=1;" parent="1" vertex="1">
          <mxGeometry x="240" y="300" width="140" height="20" as="geometry"/>
        </mxCell>
        <mxCell id="pYWC7X-lwmj8GI8FR78z-7" value="&lt;font color=&quot;#999999&quot;&gt;//&amp;nbsp;S3:&lt;/font&gt;&lt;span style=&quot;color: rgb(153 , 153 , 153)&quot;&gt;&amp;nbsp;trace prediction stub&lt;/span&gt;" style="text;html=1;align=left;verticalAlign=middle;resizable=0;points=[];;autosize=1;" parent="1" vertex="1">
          <mxGeometry x="240" y="320" width="150" height="20" as="geometry"/>
        </mxCell>
        <mxCell id="pYWC7X-lwmj8GI8FR78z-8" value="&lt;font color=&quot;#999999&quot;&gt;//&amp;nbsp;&lt;/font&gt;&lt;span style=&quot;color: rgb(153 , 153 , 153)&quot;&gt;S4: beginning of QEMU emulation code&lt;/span&gt;" style="text;html=1;align=left;verticalAlign=middle;resizable=0;points=[];;autosize=1;" parent="1" vertex="1">
          <mxGeometry x="240" y="360" width="240" height="20" as="geometry"/>
        </mxCell>
        <mxCell id="pYWC7X-lwmj8GI8FR78z-9" value="&lt;b&gt;tcg_out_call&lt;/b&gt;" style="rounded=0;whiteSpace=wrap;html=1;" parent="1" vertex="1">
          <mxGeometry x="240" y="340" width="80" height="20" as="geometry"/>
        </mxCell>
        <mxCell id="pYWC7X-lwmj8GI8FR78z-10" value="TCGContext *s" style="rounded=0;whiteSpace=wrap;html=1;fillColor=#e1d5e7;strokeColor=#9673a6;" parent="1" vertex="1">
          <mxGeometry x="320" y="340" width="100" height="20" as="geometry"/>
        </mxCell>
        <mxCell id="pYWC7X-lwmj8GI8FR78z-11" value="tcg/i386/tcg-target.c: 1823~1876" style="text;html=1;align=left;verticalAlign=middle;resizable=0;points=[];;autosize=1;" parent="1" vertex="1">
          <mxGeometry x="200" y="240" width="190" height="20" as="geometry"/>
        </mxCell>
        <mxCell id="pYWC7X-lwmj8GI8FR78z-13" value="tcg_insn_unit *dest" style="rounded=0;whiteSpace=wrap;html=1;fillColor=#f5f5f5;strokeColor=#666666;fontColor=#333333;" parent="1" vertex="1">
          <mxGeometry x="420" y="340" width="120" height="20" as="geometry"/>
        </mxCell>
        <mxCell id="pYWC7X-lwmj8GI8FR78z-16" style="edgeStyle=orthogonalEdgeStyle;rounded=0;orthogonalLoop=1;jettySize=auto;html=1;strokeWidth=2;fillColor=#f5f5f5;strokeColor=#666666;" parent="1" source="pYWC7X-lwmj8GI8FR78z-15" target="pYWC7X-lwmj8GI8FR78z-13" edge="1">
          <mxGeometry relative="1" as="geometry">
            <Array as="points">
              <mxPoint x="620" y="330"/>
              <mxPoint x="480" y="330"/>
            </Array>
          </mxGeometry>
        </mxCell>
        <mxCell id="pYWC7X-lwmj8GI8FR78z-15" value="&lt;b&gt;helper_NET_predict&lt;/b&gt;" style="rounded=0;whiteSpace=wrap;html=1;" parent="1" vertex="1">
          <mxGeometry x="560" y="300" width="120" height="20" as="geometry"/>
        </mxCell>
        <mxCell id="pYWC7X-lwmj8GI8FR78z-17" value="&lt;b&gt;tcg_out_op&lt;/b&gt;" style="rounded=0;whiteSpace=wrap;html=1;" parent="1" vertex="1">
          <mxGeometry x="160" y="200" width="80" height="20" as="geometry"/>
        </mxCell>
        <mxCell id="pYWC7X-lwmj8GI8FR78z-18" value="TCGContext *s" style="rounded=0;whiteSpace=wrap;html=1;fillColor=#e1d5e7;strokeColor=#9673a6;" parent="1" vertex="1">
          <mxGeometry x="240" y="200" width="100" height="20" as="geometry"/>
        </mxCell>
        <mxCell id="pYWC7X-lwmj8GI8FR78z-19" value="TCGOpcode opc" style="rounded=0;whiteSpace=wrap;html=1;fillColor=#f8cecc;strokeColor=#b85450;" parent="1" vertex="1">
          <mxGeometry x="340" y="200" width="100" height="20" as="geometry"/>
        </mxCell>
        <mxCell id="pYWC7X-lwmj8GI8FR78z-22" value="args[0]" style="edgeStyle=orthogonalEdgeStyle;rounded=0;orthogonalLoop=1;jettySize=auto;html=1;strokeWidth=2;fillColor=#f5f5f5;strokeColor=#666666;" parent="1" source="pYWC7X-lwmj8GI8FR78z-20" target="pYWC7X-lwmj8GI8FR78z-3" edge="1">
          <mxGeometry x="0.1393" relative="1" as="geometry">
            <mxPoint as="offset"/>
          </mxGeometry>
        </mxCell>
        <mxCell id="pYWC7X-lwmj8GI8FR78z-23" value="args[1]" style="edgeStyle=orthogonalEdgeStyle;rounded=0;orthogonalLoop=1;jettySize=auto;html=1;strokeWidth=2;fillColor=#f5f5f5;strokeColor=#666666;" parent="1" source="pYWC7X-lwmj8GI8FR78z-20" target="pYWC7X-lwmj8GI8FR78z-4" edge="1">
          <mxGeometry relative="1" as="geometry"/>
        </mxCell>
        <mxCell id="pYWC7X-lwmj8GI8FR78z-20" value="const TCGArg *args" style="rounded=0;whiteSpace=wrap;html=1;fillColor=#f5f5f5;strokeColor=#666666;fontColor=#333333;" parent="1" vertex="1">
          <mxGeometry x="440" y="200" width="120" height="20" as="geometry"/>
        </mxCell>
        <mxCell id="pYWC7X-lwmj8GI8FR78z-21" value="const int *const_args" style="rounded=0;whiteSpace=wrap;html=1;fillColor=#f5f5f5;strokeColor=#666666;fontColor=#333333;" parent="1" vertex="1">
          <mxGeometry x="560" y="200" width="120" height="20" as="geometry"/>
        </mxCell>
        <mxCell id="pYWC7X-lwmj8GI8FR78z-24" value="&lt;font color=&quot;#999999&quot;&gt;/// 当opc是&lt;b&gt;INDEX_op_hotpatch&lt;/b&gt;时就会调用tcg_out_hotpatch函数&lt;/font&gt;" style="text;html=1;align=left;verticalAlign=middle;resizable=0;points=[];;autosize=1;" parent="1" vertex="1">
          <mxGeometry x="160" y="180" width="360" height="20" as="geometry"/>
        </mxCell>
        <mxCell id="pYWC7X-lwmj8GI8FR78z-25" value="&lt;b&gt;tcg_reg_alloc_op&lt;/b&gt;" style="rounded=0;whiteSpace=wrap;html=1;" parent="1" vertex="1">
          <mxGeometry x="120" y="140" width="100" height="30" as="geometry"/>
        </mxCell>
        <mxCell id="pYWC7X-lwmj8GI8FR78z-27" value="tcg/tcg.c: 2177~2347" style="text;html=1;align=left;verticalAlign=middle;resizable=0;points=[];;autosize=1;" parent="1" vertex="1">
          <mxGeometry x="120" y="120" width="130" height="20" as="geometry"/>
        </mxCell>
        <mxCell id="pYWC7X-lwmj8GI8FR78z-28" value="&lt;b&gt;tcg_gen_code&lt;/b&gt;" style="rounded=0;whiteSpace=wrap;html=1;" parent="1" vertex="1">
          <mxGeometry x="80" y="100" width="100" height="20" as="geometry"/>
        </mxCell>
        <mxCell id="pYWC7X-lwmj8GI8FR78z-40" style="edgeStyle=orthogonalEdgeStyle;rounded=0;orthogonalLoop=1;jettySize=auto;html=1;strokeWidth=2;fillColor=#e1d5e7;strokeColor=#9673a6;" parent="1" source="pYWC7X-lwmj8GI8FR78z-29" target="pYWC7X-lwmj8GI8FR78z-30" edge="1">
          <mxGeometry relative="1" as="geometry">
            <Array as="points">
              <mxPoint x="230" y="130"/>
              <mxPoint x="260" y="130"/>
            </Array>
          </mxGeometry>
        </mxCell>
        <mxCell id="pYWC7X-lwmj8GI8FR78z-29" value="TCGContext *s" style="rounded=0;whiteSpace=wrap;html=1;fillColor=#e1d5e7;strokeColor=#9673a6;" parent="1" vertex="1">
          <mxGeometry x="180" y="100" width="100" height="20" as="geometry"/>
        </mxCell>
        <mxCell id="pYWC7X-lwmj8GI8FR78z-39" style="edgeStyle=orthogonalEdgeStyle;rounded=0;orthogonalLoop=1;jettySize=auto;html=1;strokeWidth=2;fillColor=#e1d5e7;strokeColor=#9673a6;" parent="1" source="pYWC7X-lwmj8GI8FR78z-30" target="pYWC7X-lwmj8GI8FR78z-18" edge="1">
          <mxGeometry relative="1" as="geometry">
            <Array as="points">
              <mxPoint x="260" y="180"/>
              <mxPoint x="290" y="180"/>
            </Array>
          </mxGeometry>
        </mxCell>
        <mxCell id="pYWC7X-lwmj8GI8FR78z-30" value="TCGContext *s" style="rounded=0;whiteSpace=wrap;html=1;fillColor=#e1d5e7;strokeColor=#9673a6;" parent="1" vertex="1">
          <mxGeometry x="220" y="140" width="80" height="30" as="geometry"/>
        </mxCell>
        <mxCell id="pYWC7X-lwmj8GI8FR78z-31" value="tcg/tcg.c: 2518~2665" style="text;html=1;align=left;verticalAlign=middle;resizable=0;points=[];;autosize=1;" parent="1" vertex="1">
          <mxGeometry x="80" y="80" width="130" height="20" as="geometry"/>
        </mxCell>
        <mxCell id="pYWC7X-lwmj8GI8FR78z-32" value="tcg_insn_unit *gen_code_buf" style="rounded=0;whiteSpace=wrap;html=1;fillColor=#f5f5f5;strokeColor=#666666;fontColor=#333333;" parent="1" vertex="1">
          <mxGeometry x="280" y="100" width="160" height="20" as="geometry"/>
        </mxCell>
        <mxCell id="pYWC7X-lwmj8GI8FR78z-33" value="const TCGOpDef *def" style="rounded=0;whiteSpace=wrap;html=1;fillColor=#f5f5f5;strokeColor=#666666;fontColor=#333333;" parent="1" vertex="1">
          <mxGeometry x="300" y="140" width="100" height="30" as="geometry"/>
        </mxCell>
        <mxCell id="pYWC7X-lwmj8GI8FR78z-38" style="edgeStyle=orthogonalEdgeStyle;rounded=0;orthogonalLoop=1;jettySize=auto;html=1;strokeWidth=2;fillColor=#f8cecc;strokeColor=#b85450;" parent="1" source="pYWC7X-lwmj8GI8FR78z-34" target="pYWC7X-lwmj8GI8FR78z-19" edge="1">
          <mxGeometry relative="1" as="geometry">
            <Array as="points">
              <mxPoint x="440" y="180"/>
              <mxPoint x="390" y="180"/>
            </Array>
          </mxGeometry>
        </mxCell>
        <mxCell id="pYWC7X-lwmj8GI8FR78z-34" value="TCGOpcode opc" style="rounded=0;whiteSpace=wrap;html=1;fillColor=#f8cecc;strokeColor=#b85450;" parent="1" vertex="1">
          <mxGeometry x="400" y="140" width="80" height="30" as="geometry"/>
        </mxCell>
        <mxCell id="pYWC7X-lwmj8GI8FR78z-35" value="const TCGArg *args" style="rounded=0;whiteSpace=wrap;html=1;fillColor=#f5f5f5;strokeColor=#666666;fontColor=#333333;" parent="1" vertex="1">
          <mxGeometry x="480" y="140" width="80" height="30" as="geometry"/>
        </mxCell>
        <mxCell id="pYWC7X-lwmj8GI8FR78z-36" value="uint16_t dead_args" style="rounded=0;whiteSpace=wrap;html=1;fillColor=#f5f5f5;strokeColor=#666666;fontColor=#333333;" parent="1" vertex="1">
          <mxGeometry x="560" y="140" width="60" height="30" as="geometry"/>
        </mxCell>
        <mxCell id="pYWC7X-lwmj8GI8FR78z-37" value="uint8_t sync_args" style="rounded=0;whiteSpace=wrap;html=1;fillColor=#f5f5f5;strokeColor=#666666;fontColor=#333333;" parent="1" vertex="1">
          <mxGeometry x="620" y="140" width="60" height="30" as="geometry"/>
        </mxCell>
        <mxCell id="pYWC7X-lwmj8GI8FR78z-42" value="&lt;font color=&quot;#999999&quot;&gt;/// 将tcg翻译为本地码&lt;/font&gt;" style="text;html=1;align=left;verticalAlign=middle;resizable=0;points=[];;autosize=1;" parent="1" vertex="1">
          <mxGeometry x="200" y="80" width="130" height="20" as="geometry"/>
        </mxCell>
      </root>
    </mxGraphModel>
  </diagram>
</mxfile>
